<?xml version="1.0" standalone="no"?>
<!DOCTYPE svg PUBLIC "-//W3C//DTD SVG 20010904//EN"
 "http://www.w3.org/TR/2001/REC-SVG-20010904/DTD/svg10.dtd">
<svg version="1.0" xmlns="http://www.w3.org/2000/svg"
 width="96.000000pt" height="96.000000pt" viewBox="0 0 96.000000 96.000000"
 preserveAspectRatio="xMidYMid meet">
<metadata>
Created by potrace 1.15, written by Peter Selinger 2001-2017
</metadata>
<g transform="translate(0.000000,96.000000) scale(0.100000,-0.100000)"
fill="#000000" stroke="none">
<path d="M634 846 c-27 -27 -34 -42 -34 -72 l0 -39 -136 -79 c-121 -69 -139
-77 -161 -67 -13 6 -44 11 -69 11 -39 0 -51 -5 -80 -34 -30 -30 -34 -40 -34
-86 0 -46 4 -56 34 -86 29 -29 41 -34 80 -34 25 0 56 5 69 11 21 10 40 2 160
-68 123 -71 136 -81 137 -106 1 -90 98 -145 180 -102 79 41 79 169 0 210 -35
18 -72 19 -116 3 -30 -11 -38 -7 -168 68 -181 105 -181 103 0 208 121 69 139
77 161 67 13 -6 44 -11 69 -11 39 0 51 5 80 34 30 30 34 40 34 86 0 46 -4 56
-34 86 -30 30 -40 34 -86 34 -46 0 -56 -4 -86 -34z"/>
</g>
</svg>
